<svg width="20" height="20" viewBox="0 0 20 20" fill="none" xmlns="http://www.w3.org/2000/svg">
<path d="M10.12 14.919C8.612 14.919 7.637 14.321 7 13.606L7.728 12.644C8.287 13.216 9.002 13.697 9.99 13.697C11.069 13.697 11.81 13.099 11.81 12.111C11.81 11.045 11.134 10.356 8.976 10.356V9.251C10.861 9.251 11.485 8.536 11.485 7.574C11.485 6.729 10.926 6.196 10.016 6.183C9.275 6.196 8.651 6.56 8.105 7.093L7.325 6.157C8.079 5.481 8.963 5 10.068 5C11.784 5 12.993 5.884 12.993 7.47C12.993 8.575 12.356 9.342 11.342 9.719V9.784C12.447 10.057 13.318 10.889 13.318 12.176C13.318 13.905 11.875 14.919 10.12 14.919Z" fill="black"/>
<circle cx="10" cy="10" r="9.25" stroke="black" stroke-width="1.5"/>
</svg>
