<svg width="32" height="20" viewBox="0 0 32 20" fill="none" xmlns="http://www.w3.org/2000/svg">
<g clip-path="url(#clip0_8960_32434)">
<path d="M31.9734 13.3249C31.9734 13.5084 31.9734 13.6916 31.9734 13.8752C28.5425 13.8752 25.1109 13.8752 21.6801 13.8752C21.6801 15.9087 21.6801 17.9415 21.6801 19.975C21.4843 19.975 21.2893 19.975 21.0935 19.975C21.0935 17.7587 21.0935 15.5416 21.0935 13.3249C24.7201 13.3249 28.3467 13.3249 31.9734 13.3249Z" fill="white"/>
<path d="M31.9735 12.9748C31.9735 13.0916 31.9735 13.2084 31.9735 13.3248C28.3468 13.3248 24.7202 13.3248 21.0936 13.3248C21.0936 15.5415 21.0936 17.7586 21.0936 19.9749C20.9694 19.9749 20.8444 19.9749 20.7202 19.9749C20.7202 17.6414 20.7202 15.3083 20.7202 12.9748C24.471 12.9748 28.2226 12.9748 31.9735 12.9748Z" fill="#009A00"/>
<path d="M31.9735 13.8751C31.9735 15.9086 31.9735 17.9414 31.9735 19.9749C28.5426 19.9749 25.111 19.9749 21.6802 19.9749C21.6802 17.9414 21.6802 15.9086 21.6802 13.8751C25.111 13.8751 28.5426 13.8751 31.9735 13.8751Z" fill="#009A00"/>
<path d="M31.9735 0.0125122C31.9735 2.04604 31.9735 4.07918 31.9735 6.11233C28.5426 6.11233 25.111 6.11233 21.6802 6.11233C21.6802 4.07918 21.6802 2.04604 21.6802 0.0125122C25.111 0.0125122 28.5426 0.0125122 31.9735 0.0125122Z" fill="#009A00"/>
<path d="M31.9735 6.66262C31.9735 6.77905 31.9735 6.89586 31.9735 7.01266C31.9694 7.01266 31.9646 7.01266 31.9601 7.01266C28.2133 7.01266 24.467 7.01266 20.7202 7.01266C20.7202 4.67915 20.7202 2.34602 20.7202 0.0125122C20.8444 0.0125122 20.9694 0.0125122 21.0936 0.0125122C21.0936 2.22884 21.0936 4.44592 21.0936 6.66262C24.7202 6.66262 28.3468 6.66262 31.9735 6.66262Z" fill="#009A00"/>
<path d="M31.9734 6.11233C31.9734 6.29589 31.9734 6.47906 31.9734 6.66262C28.3467 6.66262 24.7201 6.66262 21.0935 6.66262C21.0935 4.44592 21.0935 2.22884 21.0935 0.0125122C21.2893 0.0125122 21.4843 0.0125122 21.6801 0.0125122C21.6801 2.04604 21.6801 4.07918 21.6801 6.11233C25.1109 6.11233 28.5425 6.11233 31.9734 6.11233Z" fill="white"/>
<path d="M15.0535 18.0124C15.3136 18.0799 15.793 18.1701 16.0134 18.1125C16.0976 17.4875 15.7594 17.0369 15.8002 16.4123C15.8188 16.1256 15.9499 15.8131 16.0668 15.4627C16.1663 15.1635 16.2056 14.7694 16.3334 14.5127C16.4507 14.2772 16.7359 14.0526 16.92 13.8126C17.3286 13.2794 17.6008 12.7617 17.8799 12.1625C18.0223 11.8576 18.2311 11.608 18.3601 11.3126C18.8193 10.2621 18.6704 9.174 19.2667 8.06242C19.1352 7.60998 19.0381 7.27207 19.1069 6.86248C19.221 6.18515 19.8658 5.53853 19.9066 4.91239C19.9354 4.4774 19.5717 3.99347 19.64 3.56265C19.6951 3.21412 20.1506 3.03094 20.1202 2.71238C20.0773 2.50265 19.9325 2.3885 19.9066 2.16247C19.1392 2.18181 18.7986 1.80142 18.4669 1.41232C18.2084 1.43735 17.8225 1.3414 17.7201 1.51244C17.3031 2.23832 16.3286 2.44159 15.64 2.91262C15.348 3.4375 15.2901 4.04884 14.8933 4.61241C14.7169 4.86309 14.3654 4.99886 14.1999 5.26244C14.0215 5.54687 14.0154 6.03838 13.8799 6.41232C13.6963 6.91937 13.3265 7.35437 13.0268 7.76244C12.6906 8.21981 12.2125 8.64305 12.0668 9.01244C11.8071 9.67043 11.8933 10.6815 11.8532 11.5124C11.8358 11.8777 11.6789 12.3225 11.7468 12.6126C11.7962 12.8239 12.066 13.0014 12.2266 13.2126C12.3787 13.4125 12.5446 13.6446 12.6534 13.8626C12.8144 14.1861 12.8269 14.5544 12.9734 14.8127C13.2602 15.3167 13.9653 15.7039 14.3601 16.2125C14.6032 16.5261 14.7274 16.8299 14.9467 17.1625C14.8144 17.4477 14.9333 17.8098 15.0535 18.0124ZM31.96 7.01267C31.96 8.99613 31.96 10.9788 31.96 12.9627C28.2092 12.9627 24.4576 12.9627 20.7068 12.9627C20.7068 15.2958 20.7068 17.6289 20.7068 19.9625C17.5599 19.9625 14.4135 19.9625 11.2667 19.9625C11.2667 17.6331 11.2667 15.3045 11.2667 12.9748C11.2667 12.971 11.2667 12.9665 11.2667 12.9627C7.51585 12.9627 3.76424 12.9627 0.0134277 12.9627C0.0134277 10.9788 0.0134277 8.99613 0.0134277 7.01267C3.76424 7.01267 7.51585 7.01267 11.2667 7.01267C11.2667 4.67915 11.2667 2.34602 11.2667 0.0125122C14.4135 0.0125122 17.5599 0.0125122 20.7068 0.0125122C20.7068 2.34602 20.7068 4.67915 20.7068 7.01267C20.7108 7.01267 20.7157 7.01267 20.7201 7.01267C24.4669 7.01267 28.2133 7.01267 31.96 7.01267Z" fill="white"/>
<path d="M17.7203 1.51242C17.8226 1.34138 18.2085 1.43733 18.467 1.4123C18.7987 1.80141 19.1393 2.18179 19.9067 2.16245C19.9326 2.38848 20.0775 2.50263 20.1203 2.71236C20.1507 3.03093 19.6952 3.2141 19.6402 3.56263C19.5718 3.99346 19.9355 4.47738 19.9067 4.91237C19.8659 5.53851 19.2211 6.18513 19.107 6.86246C19.0382 7.27205 19.1353 7.60996 19.2668 8.0624C18.6705 9.17398 18.8194 10.262 18.3602 11.3126C18.2312 11.608 18.0224 11.8575 17.88 12.1624C17.6009 12.7617 17.3287 13.2793 16.9201 13.8126C16.736 14.0526 16.4508 14.2771 16.3335 14.5126C16.2057 14.7694 16.1664 15.1634 16.0669 15.4627C15.95 15.8131 15.819 16.1256 15.8003 16.4123C15.7595 17.0369 16.0977 17.4875 16.0135 18.1125C15.7931 18.1701 15.3137 18.0799 15.0536 18.0123C14.9334 17.8098 14.8145 17.4476 14.9468 17.1625C14.7275 16.8299 14.6033 16.5261 14.3602 16.2124C13.9654 15.7039 13.2603 15.3167 12.9735 14.8126C12.827 14.5544 12.8145 14.1861 12.6535 13.8626C12.5447 13.6446 12.3788 13.4124 12.2267 13.2126C12.0661 13.0013 11.7963 12.8239 11.7469 12.6126C11.679 12.3225 11.8359 11.8776 11.8533 11.5124C11.8934 10.6815 11.8072 9.67041 12.0669 9.01242C12.2126 8.64303 12.6907 8.21979 13.0269 7.76242C13.3266 7.35435 13.6964 6.91935 13.88 6.4123C14.0156 6.03836 14.0216 5.54685 14.2 5.26242C14.3655 4.99884 14.717 4.86307 14.8934 4.61239C15.2902 4.04883 15.3481 3.43748 15.6402 2.9126C16.3287 2.44158 17.3032 2.2383 17.7203 1.51242Z" fill="#009A00"/>
<path d="M11.2667 19.9624C11.2667 19.9666 11.2667 19.9712 11.2667 19.9749C11.1425 19.9749 11.0179 19.9749 10.8933 19.9749C10.8933 17.7586 10.8933 15.5415 10.8933 13.3248C7.26666 13.3248 3.64005 13.3248 0.0134277 13.3248C0.0134277 13.2084 0.0134277 13.0916 0.0134277 12.9748C3.76424 12.9748 7.51585 12.9748 11.2667 12.9748C11.2667 15.3045 11.2667 17.6331 11.2667 19.9624Z" fill="#009A00"/>
<path d="M11.2667 0.0125122C11.2667 2.34602 11.2667 4.67915 11.2667 7.01266C7.51585 7.01266 3.76424 7.01266 0.0134277 7.01266C0.0134277 6.89586 0.0134277 6.77905 0.0134277 6.66262C3.64005 6.66262 7.26666 6.66262 10.8933 6.66262C10.8933 4.44592 10.8933 2.22884 10.8933 0.0125122C11.0179 0.0125122 11.1425 0.0125122 11.2667 0.0125122Z" fill="#009A00"/>
<path d="M10.8933 13.3249C10.8933 15.5416 10.8933 17.7587 10.8933 19.975C10.6975 19.975 10.5025 19.975 10.3067 19.975C10.3067 17.9415 10.3067 15.9087 10.3067 13.8752C6.87589 13.8752 3.44425 13.8752 0.0134277 13.8752C0.0134277 13.6916 0.0134277 13.5084 0.0134277 13.3249C3.64005 13.3249 7.26666 13.3249 10.8933 13.3249Z" fill="white"/>
<path d="M10.8933 0.0125122C10.8933 2.22884 10.8933 4.44592 10.8933 6.66262C7.26666 6.66262 3.64005 6.66262 0.0134277 6.66262C0.0134277 6.47906 0.0134277 6.29589 0.0134277 6.11233C3.44425 6.11233 6.87589 6.11233 10.3067 6.11233C10.3067 4.07918 10.3067 2.04604 10.3067 0.0125122C10.5025 0.0125122 10.6975 0.0125122 10.8933 0.0125122Z" fill="white"/>
<path d="M10.3067 13.8751C10.3067 15.9086 10.3067 17.9414 10.3067 19.9749C6.87589 19.9749 3.44425 19.9749 0.0134277 19.9749C0.0134277 17.9414 0.0134277 15.9086 0.0134277 13.8751C3.44425 13.8751 6.87589 13.8751 10.3067 13.8751Z" fill="#009A00"/>
<path d="M10.3067 0.0125122C10.3067 2.04604 10.3067 4.07918 10.3067 6.11233C6.87589 6.11233 3.44425 6.11233 0.0134277 6.11233C0.0134277 4.07918 0.0134277 2.04604 0.0134277 0.0125122C3.44425 0.0125122 6.87589 0.0125122 10.3067 0.0125122Z" fill="#009A00"/>
</g>
<defs>
<clipPath id="clip0_8960_32434">
<rect width="32" height="20" fill="white"/>
</clipPath>
</defs>
</svg>
