<svg width="31" height="20" viewBox="0 0 31 20" fill="none" xmlns="http://www.w3.org/2000/svg">
<g clip-path="url(#clip0_8960_32450)">
<path d="M0 0H31V20H0V0Z" fill="#000095"/>
<path d="M15.5 2.5L19.375 16.4952L8.7883 6.25L23.25 10L8.7883 13.75L19.375 3.50481L15.5 17.5L11.625 3.50481L22.2117 13.75L7.75 10L22.2117 6.25L11.625 16.4952L15.5 2.5Z" fill="white"/>
<path fill-rule="evenodd" clip-rule="evenodd" d="M15.5 6.78534C13.6675 6.78534 12.1796 8.2233 12.1796 10C12.1796 11.7767 13.6675 13.2147 15.5 13.2147C17.3324 13.2147 18.8204 11.7767 18.8204 10C18.8204 8.2233 17.3324 6.78534 15.5 6.78534ZM10.5537 10C10.5537 7.35842 12.7669 5.21466 15.5 5.21466C18.2331 5.21466 20.4463 7.35842 20.4463 10C20.4463 12.6416 18.2331 14.7853 15.5 14.7853C12.7669 14.7853 10.5537 12.6416 10.5537 10Z" fill="#000095"/>
</g>
<defs>
<clipPath id="clip0_8960_32450">
<rect width="31" height="20" fill="white"/>
</clipPath>
</defs>
</svg>
