<svg width="20" height="20" viewBox="0 0 20 20" fill="none" xmlns="http://www.w3.org/2000/svg">
<g clip-path="url(#clip0_8960_32385)">
<path d="M20 20H0V0H20V20Z" fill="#28C8C8"/>
<path d="M13.8554 9.87127C13.3428 9.6609 12.984 9.35032 12.8067 9.03355C12.7998 9.02091 12.7984 9.00622 12.8024 8.9925C12.9147 8.61912 12.9567 8.05445 12.9595 7.6416C12.9596 7.61585 12.9414 7.59374 12.9161 7.589L12.0919 7.43693C12.0605 7.43111 12.0313 7.45431 12.0294 7.48613C11.9671 8.51114 11.6059 9.65543 10.9221 9.87431C10.8973 9.88232 10.8819 9.90698 10.8859 9.93273L11.0523 11.0165C11.0568 11.0463 11.0853 11.0662 11.115 11.0605C11.6839 10.9528 12.0718 10.6565 12.3808 10.1619C12.4015 10.1289 12.4489 10.1285 12.4704 10.161C12.7096 10.5219 13.0922 10.8388 13.6584 11.048C13.6902 11.0598 13.7247 11.0395 13.7297 11.0061L13.8882 9.92812C13.8917 9.90395 13.8781 9.8805 13.8554 9.87127Z" fill="#F4F4EE"/>
<path d="M8.9579 9.86994C8.57031 9.67924 8.20957 9.3496 8.03284 9.03343C8.0258 9.02092 8.02447 9.00622 8.02872 8.99238C8.14071 8.61913 8.18273 8.05445 8.18565 7.64148C8.18589 7.61573 8.16755 7.59375 8.14216 7.58901L7.31805 7.43694C7.28659 7.43111 7.25743 7.45418 7.25549 7.48613C7.19342 8.51102 6.83208 9.65531 6.14813 9.87431C6.12335 9.88232 6.10804 9.90698 6.11193 9.93273L6.27833 11.0164C6.28307 11.0463 6.31149 11.0662 6.34113 11.0605C6.91212 10.9523 7.30092 10.6543 7.6104 10.1563C7.63008 10.1248 7.67551 10.1226 7.69786 10.1526C7.97455 10.5244 8.26715 10.8476 8.75639 11.0458C8.78822 11.0587 8.82381 11.0383 8.82891 11.0043L8.98741 9.92544C8.99082 9.90248 8.97879 9.88014 8.9579 9.86994Z" fill="#F4F4EE"/>
<path d="M13.6683 6.93983V6.09397C13.6683 6.06458 13.6445 6.04089 13.6151 6.04102L6.26328 6.06434C6.23413 6.06446 6.21045 6.08814 6.21045 6.11742V6.93983C6.21045 6.9691 6.23426 6.99291 6.26341 6.99291H9.20909C9.23837 6.99291 9.26217 7.0166 9.26217 7.04587V11.0171C9.26217 11.0464 9.28586 11.0703 9.31513 11.0703H10.5664C10.5957 11.0703 10.6194 11.0464 10.6194 11.0171V7.04587C10.6194 7.0166 10.6432 6.99291 10.6725 6.99291H13.6152C13.6445 6.99291 13.6683 6.96911 13.6683 6.93983Z" fill="#F4F4EE"/>
<path d="M7.56083 3.39356C7.56083 3.36429 7.58451 3.34048 7.61391 3.34048H8.43511C8.46438 3.34048 8.48819 3.36429 8.48819 3.39356V4.5868C8.48819 4.61607 8.46438 4.63988 8.43511 4.63988H7.61391C7.58451 4.63988 7.56083 4.61607 7.56083 4.5868V3.39356ZM9.4866 3.39356C9.4866 3.36429 9.51053 3.34048 9.5398 3.34048H10.3428C10.3722 3.34048 10.396 3.36429 10.396 3.39356V4.5868C10.396 4.61607 10.3722 4.63988 10.3428 4.63988H9.5398C9.51053 4.63988 9.4866 4.61607 9.4866 4.5868V3.39356ZM11.3944 3.39356C11.3944 3.36429 11.4182 3.34048 11.4475 3.34048H12.2688C12.2981 3.34048 12.3218 3.36429 12.3218 3.39356V4.5868C12.3218 4.61607 12.2981 4.63988 12.2688 4.63988H11.4475C11.4182 4.63988 11.3944 4.61607 11.3944 4.5868V3.39356ZM6.45237 5.43813H13.4274C13.4567 5.43813 13.4804 5.41432 13.4804 5.38505V2.59532C13.4804 2.56604 13.4567 2.54224 13.4274 2.54224H6.45237C6.4231 2.54224 6.39941 2.56604 6.39941 2.59532V5.38505C6.39941 5.41432 6.4231 5.43813 6.45237 5.43813Z" fill="#F4F4EE"/>
<path d="M14.657 14.0965H14.9788C14.9809 14.0965 14.9826 14.0948 14.9826 14.0928V13.7797C14.9826 13.7775 14.9842 13.7759 14.9862 13.7759H16.7998C16.8017 13.7759 16.8034 13.7775 16.8034 13.7797V14.0928C16.8034 14.0947 16.8051 14.0965 16.8071 14.0965H17.1258C17.1278 14.0965 17.1294 14.0948 17.1294 14.0928L17.1308 13.5717C17.1308 13.5697 17.1292 13.568 17.1271 13.568H16.5646C16.5622 13.568 16.5612 13.5647 16.5633 13.5632C16.6694 13.4932 16.7409 13.4407 16.7592 13.427C16.7614 13.4254 16.761 13.4221 16.7586 13.4209L16.4156 13.2459C16.4138 13.2449 16.4115 13.2459 16.4106 13.2479C16.3467 13.4023 16.2809 13.5079 16.2435 13.562C16.2408 13.5659 16.2364 13.568 16.2318 13.568H16.0535C16.0514 13.568 16.0499 13.5664 16.0499 13.5643V13.25C16.0499 13.2479 16.0482 13.2463 16.0462 13.2463H15.7209C15.7189 13.2463 15.7172 13.2479 15.7172 13.25V13.5643C15.7172 13.5664 15.7156 13.568 15.7135 13.568H15.5049C15.5022 13.568 15.5011 13.5646 15.5034 13.563L15.579 13.5132C15.5809 13.512 15.5813 13.5092 15.5796 13.5075C15.4548 13.3865 15.213 13.272 15.1899 13.2612C15.1887 13.2605 15.1875 13.2607 15.1864 13.2614L15.013 13.3741C15.0108 13.3755 15.0107 13.3785 15.0127 13.3802C15.1063 13.4562 15.1732 13.5194 15.2201 13.568H14.657C14.6549 13.568 14.6533 13.5697 14.6533 13.5717V14.0928C14.6533 14.0947 14.6549 14.0965 14.657 14.0965Z" fill="#30363A"/>
<path d="M16.3045 14.12C16.3045 14.1231 16.3021 14.1255 16.2992 14.1255H15.4581C15.4551 14.1255 15.4527 14.1229 15.4527 14.12V14.0248C15.4527 14.0216 15.4552 14.0193 15.4581 14.0193H16.2992C16.3021 14.0193 16.3045 14.0216 16.3045 14.0248V14.12ZM15.1347 13.8573C15.1318 13.8573 15.1294 13.8596 15.1294 13.8626V14.2822C15.1294 14.2851 15.1318 14.2875 15.1347 14.2875H16.6225C16.6256 14.2875 16.6279 14.2851 16.6279 14.2822V13.8626C16.6279 13.8596 16.6256 13.8573 16.6225 13.8573H15.1347Z" fill="#30363A"/>
<path d="M15.7221 14.8162C15.7221 14.8218 15.7176 14.8263 15.712 14.8263H15.5471C15.5429 14.8263 15.5414 14.8212 15.5444 14.8187L15.6664 14.7259C15.6718 14.7218 15.6715 14.7135 15.6661 14.7097C15.579 14.6466 15.5153 14.6059 15.4712 14.5799C15.4675 14.5778 15.4691 14.5722 15.4733 14.5722H15.712C15.7176 14.5722 15.7221 14.5767 15.7221 14.5822L15.7221 14.8162ZM15.4009 14.8263H15.2455C15.2399 14.8263 15.2354 14.8218 15.2354 14.8162V14.5822C15.2354 14.5767 15.2399 14.5722 15.2455 14.5722H15.3403C15.3442 14.5722 15.3459 14.5769 15.3433 14.5795L15.2671 14.6494C15.2627 14.6534 15.2628 14.6605 15.2673 14.6644C15.3184 14.7092 15.369 14.772 15.4045 14.8196C15.4064 14.8225 15.4045 14.8263 15.4009 14.8263ZM16.0492 14.5822C16.0492 14.5767 16.0537 14.5722 16.0593 14.5722H16.2141C16.2177 14.5722 16.22 14.5762 16.2181 14.5793C16.1532 14.691 16.1028 14.7595 16.0843 14.7833C16.0805 14.7884 16.0821 14.7955 16.0878 14.7984L16.1247 14.8175C16.1292 14.8197 16.1277 14.8263 16.1228 14.8263H16.0593C16.0537 14.8263 16.0492 14.8218 16.0492 14.8162L16.0492 14.5822ZM16.3503 14.818C16.426 14.7559 16.4788 14.6995 16.4974 14.679C16.5013 14.6747 16.5006 14.6679 16.4959 14.6643L16.386 14.5807C16.3825 14.5779 16.3843 14.5722 16.3887 14.5722H16.5323C16.5379 14.5722 16.5424 14.5767 16.5424 14.5822V14.8162C16.5424 14.8218 16.5379 14.8263 16.5323 14.8263H16.3531C16.3487 14.8263 16.3469 14.8208 16.3503 14.818ZM17.1744 15.3833H16.0593C16.0537 15.3833 16.0492 15.3788 16.0492 15.3732V15.3075C16.0492 15.3019 16.0537 15.2974 16.0593 15.2974H16.9698C16.9754 15.2974 16.9799 15.2929 16.9799 15.2873V15.1255C16.9799 15.12 16.9754 15.1155 16.9698 15.1155H16.0593C16.0537 15.1155 16.0492 15.111 16.0492 15.1054V15.0397C16.0492 15.0341 16.0537 15.0296 16.0593 15.0296H16.8535C16.8591 15.0296 16.8636 15.0251 16.8636 15.0195V14.3789C16.8636 14.3733 16.8591 14.3688 16.8535 14.3688H14.9244C14.9188 14.3688 14.9143 14.3733 14.9143 14.3789V15.0195C14.9143 15.0251 14.9188 15.0296 14.9244 15.0296H15.712C15.7176 15.0296 15.7221 15.0341 15.7221 15.0397V15.1054C15.7221 15.111 15.7176 15.1155 15.712 15.1155H14.8081C14.8025 15.1155 14.798 15.12 14.798 15.1255V15.2873C14.798 15.2929 14.8025 15.2974 14.8081 15.2974H15.712C15.7176 15.2974 15.7221 15.3019 15.7221 15.3075V15.3732C15.7221 15.3788 15.7176 15.3833 15.712 15.3833H14.6033C14.5979 15.3833 14.5933 15.3878 14.5933 15.3934V15.5672C14.5933 15.5728 14.5979 15.5773 14.6035 15.5773H14.9556C14.9604 15.5773 14.9631 15.5827 14.9601 15.5864C14.9146 15.641 14.8057 15.7608 14.6099 15.9143C14.6032 15.9195 14.6055 15.9302 14.6137 15.9322L14.9756 16.0185C14.9787 16.0193 14.9818 16.0185 14.9842 16.0166C15.0108 15.9951 15.167 15.8616 15.2388 15.6604C15.2407 15.6552 15.238 15.6494 15.2329 15.6476L15.0762 15.5881C15.0704 15.5859 15.0718 15.5773 15.0781 15.5773H15.5988C15.6051 15.5773 15.6067 15.586 15.6008 15.5881L15.4555 15.6408C15.4517 15.6422 15.4492 15.6455 15.4489 15.6495C15.447 15.6763 15.4354 15.7862 15.3621 15.9834C15.3598 15.99 15.3645 15.9972 15.3716 15.9972H15.7533C15.7587 15.9972 15.7632 15.993 15.7634 15.9877C15.7656 15.9449 15.7704 15.7638 15.707 15.5847C15.7057 15.581 15.7085 15.5773 15.7123 15.5773H16.0991C16.1053 15.5773 16.107 15.5857 16.1014 15.588L15.9664 15.6466C15.961 15.6488 15.9586 15.655 15.9613 15.6602C15.9772 15.692 16.0287 15.8042 16.0681 15.9887C16.0691 15.9933 16.0732 15.9968 16.078 15.9968H16.4616C16.4686 15.9968 16.4735 15.9899 16.4711 15.9833C16.4551 15.9389 16.3918 15.7878 16.2106 15.5867C16.2073 15.583 16.2099 15.5773 16.2147 15.5773H16.6973C16.7022 15.5773 16.704 15.5835 16.7 15.5861L16.5623 15.6721C16.5573 15.6753 16.5559 15.682 16.5596 15.6867C16.5851 15.7208 16.6795 15.8513 16.7449 16.0105C16.7467 16.0149 16.7511 16.0174 16.7557 16.0167L17.1308 15.9607C17.138 15.9595 17.1417 15.9514 17.1377 15.9452C17.1057 15.8965 16.9854 15.7214 16.8263 15.5856C16.8229 15.5827 16.8249 15.5773 16.8293 15.5773H17.1744C17.18 15.5773 17.1845 15.5728 17.1845 15.5672V15.3934C17.1845 15.3878 17.18 15.3833 17.1744 15.3833Z" fill="#30363A"/>
<path d="M14.0211 14.5272V14.3211C14.0211 14.317 14.0178 14.3135 14.0135 14.3135H11.7304C11.7262 14.3135 11.7229 14.317 11.7229 14.3211V14.5272C11.7229 14.5314 11.7262 14.5348 11.7304 14.5348H12.6759C12.68 14.5348 12.6834 14.5382 12.6834 14.5423V15.9969C12.6834 16.0011 12.6868 16.0043 12.6909 16.0043H13.053C13.0572 16.0043 13.0606 16.0011 13.0606 15.9969V14.5423C13.0606 14.5382 13.064 14.5348 13.0681 14.5348H14.0135C14.0178 14.5348 14.0211 14.5314 14.0211 14.5272Z" fill="#30363A"/>
<path d="M12.0975 13.5748C12.0975 13.5685 12.1026 13.5634 12.109 13.5634H12.3785C12.385 13.5634 12.3901 13.5685 12.3901 13.5748V13.943C12.3901 13.9493 12.385 13.9544 12.3785 13.9544H12.109C12.1026 13.9544 12.0975 13.9493 12.0975 13.943V13.5748ZM12.7225 13.5748C12.7225 13.5685 12.7275 13.5634 12.7338 13.5634H13.0253C13.0315 13.5634 13.0366 13.5685 13.0366 13.5748V13.943C13.0366 13.9493 13.0315 13.9544 13.0253 13.9544H12.7338C12.7275 13.9544 12.7225 13.9493 12.7225 13.943V13.5748ZM13.3691 13.5748C13.3691 13.5685 13.3742 13.5634 13.3805 13.5634H13.6349C13.6414 13.5634 13.6465 13.5685 13.6465 13.5748V13.943C13.6465 13.9493 13.6414 13.9544 13.6349 13.9544H13.3805C13.3742 13.9544 13.3691 13.9493 13.3691 13.943V13.5748ZM11.7343 14.1662H14.0097C14.016 14.1662 14.0211 14.1611 14.0211 14.1548V13.363C14.0211 13.3567 14.016 13.3514 14.0097 13.3514H11.7343C11.728 13.3514 11.7229 13.3567 11.7229 13.363V14.1548C11.7229 14.1611 11.728 14.1662 11.7343 14.1662Z" fill="#30363A"/>
<path d="M14.1755 15.5911C14.1207 15.5577 13.7964 15.3531 13.6786 15.1292C13.676 15.1242 13.6757 15.1183 13.6774 15.1129C13.7557 14.8797 13.7613 14.6763 13.7617 14.636C13.7617 14.6319 13.7583 14.6287 13.7543 14.6287H13.4266C13.4228 14.6287 13.4195 14.6319 13.4194 14.6357C13.3877 15.2898 13.1387 15.5612 13.1019 15.5979C13.0994 15.6005 13.0992 15.6045 13.1013 15.6074L13.2014 15.7362C13.2037 15.7392 13.2079 15.74 13.2112 15.738C13.3576 15.6455 13.4648 15.526 13.5438 15.3998C13.5456 15.3968 13.55 15.3971 13.5512 15.4004C13.5972 15.5201 13.6944 15.7194 13.8758 15.8898C13.8788 15.8924 13.8833 15.8924 13.886 15.8897L14.1768 15.6026C14.1801 15.5991 14.1795 15.5937 14.1755 15.5911Z" fill="#30363A"/>
<path d="M12.2534 15.0549C12.2506 15.0484 12.2501 15.0411 12.252 15.0345C12.3095 14.8325 12.3142 14.6709 12.3145 14.6358C12.3145 14.6319 12.3114 14.6287 12.3074 14.6287H11.9795C11.9756 14.6287 11.9725 14.6319 11.9725 14.6357C11.9573 15.3444 11.5799 15.6653 11.5298 15.7051C11.5267 15.7074 11.5262 15.7116 11.5286 15.7148L11.6285 15.8435C11.6308 15.8463 11.6347 15.847 11.6377 15.8453C11.8725 15.7133 12.0258 15.53 12.1259 15.3459C12.1276 15.3427 12.132 15.3435 12.1326 15.3469C12.1549 15.4841 12.2163 15.6799 12.3806 15.8422C12.3838 15.8453 12.3891 15.8447 12.3917 15.841L12.6107 15.496C12.6127 15.4928 12.6119 15.4885 12.6088 15.4864C12.5729 15.4624 12.3757 15.3215 12.2534 15.0549Z" fill="#30363A"/>
<path d="M9.2233 14.2183H9.73052C9.73732 14.2183 9.74303 14.2234 9.74364 14.2302C9.75396 14.3382 9.77133 14.4536 9.79672 14.5717C9.79841 14.5801 9.79235 14.5879 9.78372 14.5879H9.2233C9.21589 14.5879 9.21006 14.5818 9.21006 14.5745V14.2315C9.21006 14.2242 9.21589 14.2183 9.2233 14.2183ZM9.2233 13.5762H10.5392C10.5466 13.5762 10.5525 13.5822 10.5525 13.5895V13.9836C10.5525 13.991 10.5466 13.9971 10.5392 13.9971H9.2233C9.21589 13.9971 9.21006 13.991 9.21006 13.9836V13.5895C9.21006 13.5822 9.21589 13.5762 9.2233 13.5762ZM9.77352 15.7187L9.72481 15.598C9.72226 15.5919 9.71582 15.5884 9.70939 15.5899C9.66299 15.6014 9.47606 15.6435 9.2239 15.653C9.21625 15.6532 9.21006 15.6472 9.21006 15.6396V14.8224C9.21006 14.815 9.21589 14.8091 9.22329 14.8091H9.84858C9.85441 14.8091 9.85951 14.813 9.86121 14.8183C10.04 15.395 10.4227 15.9566 11.1219 15.9623C11.1283 15.9623 11.1338 15.9579 11.1351 15.9517L11.1963 15.6519C11.1982 15.6427 11.1905 15.6344 11.1813 15.6359C11.0883 15.6507 10.8491 15.6439 10.6885 15.5361C10.5193 15.4225 10.3364 15.2152 10.2264 14.8261C10.224 14.8177 10.2305 14.8091 10.2393 14.8091H11.0636C11.071 14.8091 11.0769 14.8031 11.0769 14.7957V14.6011C11.0769 14.5938 11.071 14.5879 11.0636 14.5879H10.1841C10.1775 14.5879 10.172 14.5833 10.1709 14.5768C10.1527 14.4704 10.1396 14.3544 10.1323 14.2278C10.1319 14.2227 10.1361 14.2183 10.1412 14.2183H10.9357C10.9429 14.2183 10.9488 14.2122 10.9488 14.2049V13.3688C10.9488 13.3614 10.9428 13.3554 10.9355 13.3554L8.87263 13.355C8.86535 13.355 8.8594 13.3609 8.8594 13.3683V15.3907C8.85829 15.4626 8.85126 15.6026 8.81263 15.6306C8.8085 15.6336 8.80595 15.6384 8.8068 15.6435L8.85102 15.9479C8.85188 15.9544 8.85745 15.9593 8.86413 15.9594C8.93944 15.9598 9.37269 15.9525 9.76757 15.7353C9.77352 15.7322 9.77619 15.7249 9.77352 15.7187Z" fill="#30363A"/>
<path d="M7.12848 14.3435C7.12848 14.3399 7.1314 14.337 7.13504 14.337H7.24872C7.25249 14.337 7.2554 14.3399 7.2554 14.3435V14.564C7.2554 14.5676 7.25248 14.5706 7.24872 14.5706H7.13504C7.13139 14.5706 7.12848 14.5676 7.12848 14.564V14.3435ZM6.89648 14.7091C6.89648 14.7133 6.89976 14.7166 6.90389 14.7166L7.47804 14.717C7.48205 14.717 7.48533 14.7138 7.48533 14.7097V14.5353L7.63267 14.6541C7.63655 14.6571 7.64214 14.6557 7.6442 14.6512C7.71477 14.4918 7.72267 14.3353 7.7234 14.3027C7.72352 14.2991 7.72109 14.2959 7.71757 14.2953L7.587 14.268C7.58347 14.2673 7.58019 14.2697 7.57959 14.2731C7.55882 14.3884 7.50671 14.4796 7.48533 14.5133V14.1984C7.48533 14.1943 7.48206 14.1909 7.47804 14.1909H6.90584C6.90183 14.1909 6.89843 14.1943 6.89831 14.1984L6.89648 14.7091Z" fill="#30363A"/>
<path d="M6.89844 14.1266C6.89844 14.1302 6.90136 14.1334 6.90524 14.1334H7.47854C7.48243 14.1334 7.48534 14.1302 7.48534 14.1266V13.994C7.48534 13.9903 7.48241 13.9874 7.47854 13.9874H6.90524C6.90135 13.9874 6.89844 13.9903 6.89844 13.994V14.1266Z" fill="#30363A"/>
<path d="M6.90633 13.9088H7.47769C7.48206 13.9088 7.48558 13.9054 7.48558 13.901V13.7706C7.48558 13.7662 7.48206 13.7628 7.47769 13.7628H6.90633C6.90208 13.7628 6.89868 13.7662 6.89868 13.7706V13.901C6.89868 13.9054 6.90209 13.9088 6.90633 13.9088Z" fill="#30363A"/>
<path d="M6.83673 13.7081H7.54752C7.55226 13.7081 7.55615 13.7042 7.55615 13.6993V13.518C7.55615 13.5131 7.55226 13.5091 7.54752 13.5091H7.36472C7.36266 13.5091 7.36156 13.507 7.3628 13.5054L7.42875 13.4212C7.43192 13.4171 7.43119 13.4115 7.42692 13.4086C7.28153 13.3083 7.04226 13.2384 7.00035 13.2266C6.99646 13.2255 6.99246 13.2271 6.99051 13.2305L6.92043 13.3482C6.91812 13.3521 6.91922 13.3571 6.92287 13.3597C6.98785 13.4055 7.05478 13.4581 7.11199 13.505C7.11357 13.5064 7.11261 13.5091 7.1104 13.5091H6.83675C6.83189 13.5091 6.82812 13.5131 6.82812 13.518V13.6993C6.82812 13.7042 6.83187 13.7081 6.83673 13.7081Z" fill="#30363A"/>
<path d="M6.14286 14.7769L6.00475 14.7452C5.99868 14.744 5.99249 14.7477 5.99078 14.7538C5.85147 15.284 5.6134 15.7193 5.57211 15.7926C5.5687 15.7985 5.57114 15.8062 5.57721 15.809L5.89362 15.9617C5.90005 15.9647 5.9077 15.9614 5.91002 15.9547C6.08079 15.444 6.14359 14.8725 6.15197 14.7896C6.15259 14.7836 6.14869 14.7783 6.14286 14.7769Z" fill="#30363A"/>
<path d="M6.01939 13.7944C6.02486 13.801 6.03481 13.8011 6.04052 13.7948L6.24251 13.5715C6.24774 13.5656 6.24737 13.5565 6.24131 13.5513C6.06033 13.3963 5.76931 13.2955 5.71064 13.2761C5.70445 13.274 5.69777 13.2764 5.69425 13.282L5.6244 13.3955C5.62064 13.4015 5.6221 13.4094 5.62768 13.4138C5.8174 13.5602 5.97809 13.7456 6.01939 13.7944Z" fill="#30363A"/>
<path d="M5.94757 14.5597C5.9523 14.5666 5.96214 14.5672 5.96773 14.5609L6.17191 14.3309C6.17628 14.3261 6.17628 14.3187 6.17178 14.3138C6.00818 14.1377 5.72566 14.0041 5.67161 13.9795C5.66614 13.977 5.65994 13.9786 5.6563 13.9833C5.63917 14.0052 5.59108 14.0668 5.57298 14.0901C5.56897 14.0952 5.56957 14.1023 5.57418 14.107C5.74909 14.2754 5.90846 14.5024 5.94757 14.5597Z" fill="#30363A"/>
<path d="M6.6601 15.3364C6.6556 15.3364 6.6522 15.3323 6.65305 15.3279L6.66775 15.2521C6.66848 15.2487 6.67152 15.2463 6.67492 15.2463H8.02011C8.02411 15.2463 8.02739 15.243 8.02739 15.239V14.7738C8.02739 14.7699 8.02412 14.7667 8.02011 14.7667H6.41693C6.41292 14.7667 6.40964 14.7699 6.40964 14.7738V14.9542C6.40964 14.9582 6.41291 14.9614 6.41693 14.9614H7.66058C7.66459 14.9614 7.66787 14.9645 7.66787 14.9687V15.0443C7.66787 15.0483 7.6646 15.0515 7.66058 15.0515H6.35401C6.35061 15.0515 6.3477 15.054 6.34709 15.0574L6.25648 15.5219C6.25562 15.5263 6.25903 15.5305 6.26353 15.5305L7.75775 15.5313C7.76224 15.5313 7.76589 15.5354 7.76504 15.5398C7.74293 15.6587 7.69519 15.7855 7.59244 15.7855H6.57289C6.56986 15.7855 6.56706 15.7875 6.56609 15.7903L6.50438 15.9707C6.5027 15.9754 6.50621 15.9803 6.51118 15.9803H7.69714C8.11776 15.9803 8.15298 15.415 8.15578 15.3438C8.1559 15.3397 8.15274 15.3364 8.14873 15.3364L6.6601 15.3364Z" fill="#30363A"/>
<path d="M6.26694 14.6723C6.33812 14.5131 6.36217 14.3446 6.36703 14.3051C6.36765 14.3003 6.36458 14.2957 6.35974 14.2946C6.3369 14.2891 6.27362 14.2739 6.25139 14.2686C6.24678 14.2675 6.24216 14.2699 6.24022 14.2743C6.16868 14.4377 6.0805 14.5324 6.0511 14.5611C6.04624 14.5658 6.04746 14.5737 6.05341 14.5767C6.09361 14.5969 6.21872 14.6596 6.2537 14.677C6.25868 14.6796 6.26463 14.6774 6.26694 14.6723Z" fill="#30363A"/>
<path d="M6.72302 14.2726L6.62706 14.322C6.62354 14.324 6.62172 14.328 6.62294 14.3319C6.66047 14.4567 6.69606 14.605 6.70614 14.6479C6.70758 14.6539 6.71452 14.6562 6.71925 14.6528L6.88213 14.5342C6.88554 14.5318 6.88651 14.5273 6.88458 14.5235C6.81389 14.3871 6.75036 14.2977 6.7336 14.275C6.73116 14.2716 6.72666 14.2707 6.72302 14.2726Z" fill="#30363A"/>
<path d="M6.17969 13.7867V13.8982C6.17969 13.9041 6.18443 13.9088 6.19038 13.9088H6.38022C6.38132 13.9088 6.3818 13.9102 6.38108 13.9108C6.28768 14.0062 6.20423 14.0653 6.18419 14.0789C6.1814 14.0809 6.1797 14.0841 6.1797 14.0877V14.1969C6.1797 14.2029 6.18443 14.2076 6.19038 14.2076H6.38059C6.38204 14.2076 6.38328 14.2088 6.38328 14.2102V14.7063C6.38328 14.7123 6.38802 14.717 6.39397 14.717H6.59389C6.59972 14.717 6.60458 14.7123 6.60458 14.7063V14.2102C6.60458 14.2088 6.60579 14.2076 6.60727 14.2076H6.67334C6.67503 14.221 6.67613 14.2319 6.67686 14.2397C6.67748 14.2469 6.68464 14.2511 6.6912 14.2487L6.86136 14.1816C6.8661 14.1797 6.86901 14.1745 6.86768 14.1694C6.83476 14.031 6.75751 13.9365 6.72994 13.9064C6.7246 13.9005 6.71549 13.9001 6.70941 13.9053L6.63399 13.971C6.63096 13.9737 6.62973 13.9778 6.63082 13.9817C6.64005 14.0169 6.64758 14.0508 6.65365 14.082H6.44207C6.44134 14.082 6.4411 14.0812 6.44169 14.0808C6.5391 14.0214 6.68303 13.9125 6.80631 13.7337C6.80959 13.7292 6.80862 13.723 6.80449 13.7194L6.63202 13.5759C6.62667 13.5714 6.61841 13.5732 6.61562 13.5797C6.58161 13.6536 6.5391 13.7209 6.49391 13.7805C6.49257 13.7821 6.49064 13.7832 6.48845 13.7832H6.37281C6.37171 13.7832 6.37099 13.7819 6.37185 13.7811C6.39007 13.7627 6.52282 13.6238 6.654 13.3428C6.65679 13.3368 6.65338 13.3295 6.64708 13.3279L6.4027 13.2649C6.3965 13.2633 6.39043 13.2675 6.38958 13.2737C6.35314 13.5354 6.20083 13.7537 6.18176 13.7805C6.18042 13.7823 6.17969 13.7844 6.17969 13.7867Z" fill="#30363A"/>
<path d="M7.54322 13.7856V13.9016C7.54322 13.9056 7.54639 13.9089 7.55051 13.9089H7.73441C7.7389 13.9089 7.74121 13.9145 7.73805 13.9176C7.64489 14.0114 7.56326 14.0685 7.54638 14.0799C7.54445 14.0812 7.54321 14.0834 7.54321 14.0858V14.2005C7.54321 14.2044 7.54638 14.2077 7.5505 14.2077H7.73962C7.74351 14.2077 7.74678 14.2108 7.74678 14.2148V14.7099C7.74678 14.7139 7.74995 14.7171 7.75395 14.7171H7.9608C7.96492 14.7171 7.96809 14.7139 7.96809 14.7099V14.2116C7.96809 14.2094 7.96991 14.2077 7.97197 14.2077H8.03805C8.04049 14.2077 8.0423 14.2094 8.04254 14.2118C8.04606 14.2441 8.04764 14.2694 8.04825 14.2822C8.04849 14.287 8.05323 14.29 8.05773 14.2886L8.24465 14.2261C8.2483 14.2249 8.25024 14.2211 8.24939 14.2176C8.21162 14.0562 8.11141 13.9292 8.08834 13.9016C8.08579 13.8986 8.08117 13.8982 8.07813 13.9007L7.99615 13.9721C7.99398 13.9741 7.99322 13.9771 7.99422 13.9799C8.00527 14.0109 8.01402 14.0439 8.02118 14.0764C8.02167 14.0791 8.0195 14.0819 8.01645 14.0819H7.82017C7.81543 14.0819 7.81361 14.0757 7.81762 14.0732C7.91503 14.012 8.05301 13.9041 8.17168 13.7312C8.17374 13.728 8.17326 13.7238 8.17033 13.7214L7.99203 13.5729C7.98839 13.57 7.98292 13.5712 7.98098 13.5756C7.94672 13.6511 7.90348 13.7198 7.85757 13.7804C7.85623 13.7822 7.85416 13.7832 7.85186 13.7832H7.74413C7.74012 13.7832 7.73805 13.7784 7.74086 13.7755C7.77219 13.7426 7.89657 13.603 8.01937 13.339C8.02129 13.335 8.01899 13.3301 8.01463 13.3289L7.76248 13.2639C7.75835 13.2628 7.75422 13.2657 7.75361 13.27C7.71778 13.5365 7.56061 13.7593 7.54457 13.7815C7.54371 13.7827 7.54322 13.784 7.54322 13.7856Z" fill="#30363A"/>
<path d="M8.1094 14.3006L7.99268 14.337C8.06835 14.518 8.10442 14.6729 8.10442 14.6729L8.31151 14.5919C8.2424 14.4313 8.1094 14.3006 8.1094 14.3006Z" fill="#30363A"/>
<path d="M4.58119 15.6767C4.58119 15.6846 4.57475 15.691 4.56698 15.691H3.37337C3.36536 15.691 3.35892 15.6846 3.35892 15.6767V15.0339C3.35892 15.026 3.36536 15.0196 3.37337 15.0196H4.56698C4.57475 15.0196 4.58119 15.026 4.58119 15.0339V15.6767ZM4.92504 14.7932H3.0147C3.00668 14.7932 3.00024 14.7995 3.00024 14.8074V16.0596C3.00024 16.0689 3.00874 16.0755 3.01761 16.0737L3.34787 16C3.35431 15.9984 3.35892 15.9927 3.35892 15.986V15.9317C3.35892 15.9238 3.36536 15.9174 3.37337 15.9174H4.56698C4.57475 15.9174 4.58119 15.9238 4.58119 15.9317V16.0366C4.58119 16.0443 4.58763 16.0508 4.5954 16.0508H4.92565C4.93354 16.0508 4.93986 16.0443 4.93986 16.0366L4.93924 14.8074C4.93924 14.7995 4.93294 14.7932 4.92504 14.7932Z" fill="#30363A"/>
<path d="M5.32106 14.5358C5.27563 14.4607 4.954 13.9448 4.46463 13.5776C4.46026 13.5743 4.45406 13.5747 4.45006 13.5785L4.32629 13.6951C4.32167 13.6992 4.32143 13.7062 4.32556 13.7107C4.36492 13.7535 4.55209 13.9639 4.75542 14.3086C4.75979 14.316 4.75431 14.3257 4.7457 14.3257H3.24358C3.23265 14.3257 3.22828 14.3114 3.23727 14.3052C3.68242 13.9917 4.01219 13.4934 4.06272 13.4147C4.06636 13.4091 4.06417 13.4015 4.05823 13.3986L3.66724 13.2051C3.66166 13.2023 3.65473 13.2047 3.65206 13.2103C3.20994 14.1185 2.80584 14.3101 2.77013 14.3257H2.76758V14.5408C2.76758 14.5471 2.77256 14.5521 2.77875 14.5521H4.88186C4.88611 14.5521 4.89 14.5544 4.89194 14.5583C4.9234 14.6204 4.95449 14.6853 4.98486 14.7534C4.98778 14.7598 4.99555 14.762 5.00125 14.7582L5.31754 14.551C5.32264 14.5477 5.32409 14.541 5.32106 14.5358Z" fill="#30363A"/>
<path d="M4.21359 17.4435H4.42529C4.42942 17.4435 4.43282 17.4403 4.43282 17.436V16.6366C4.43282 16.6324 4.42941 16.6292 4.42529 16.6292H4.21359C4.20946 16.6292 4.20605 16.6324 4.20605 16.6366V17.436C4.20605 17.4403 4.20946 17.4435 4.21359 17.4435Z" fill="#30363A"/>
<path d="M3.61707 17.1176L3.70076 16.8874C3.70331 16.8808 3.71291 16.8808 3.71546 16.8874L3.79915 17.1176C3.79987 17.1195 3.79842 17.1215 3.79646 17.1215H3.61973C3.6178 17.1215 3.61635 17.1196 3.61707 17.1176ZM3.56773 16.6343L3.27683 17.4333C3.27501 17.4383 3.27876 17.4436 3.28412 17.4436H3.49304C3.49631 17.4436 3.49911 17.4415 3.5002 17.4385L3.57757 17.2262C3.57867 17.2232 3.58158 17.2211 3.58474 17.2211H3.83143C3.83459 17.2211 3.8375 17.2232 3.83859 17.2262L3.91596 17.4385C3.91706 17.4415 3.91997 17.4436 3.92325 17.4436H4.0922C4.09755 17.4436 4.10131 17.4383 4.09949 17.4333L3.80859 16.6343C3.80749 16.6311 3.80471 16.6292 3.80143 16.6292H3.5749C3.57163 16.6292 3.56883 16.6311 3.56773 16.6343Z" fill="#30363A"/>
<path d="M6.00972 17.1176L6.09341 16.8874C6.09596 16.8808 6.10556 16.8808 6.10811 16.8874L6.1918 17.1176C6.19252 17.1195 6.19107 17.1215 6.18911 17.1215H6.01238C6.01046 17.1215 6.009 17.1196 6.00972 17.1176ZM5.96026 16.6343L5.66936 17.4333C5.66768 17.4383 5.67129 17.4436 5.67677 17.4436H5.88569C5.88885 17.4436 5.89176 17.4415 5.89285 17.4385L5.97022 17.2262C5.97132 17.2232 5.97423 17.2211 5.97739 17.2211H6.22408C6.22724 17.2211 6.23015 17.2232 6.23124 17.2262L6.30861 17.4385C6.30971 17.4415 6.3125 17.4436 6.3159 17.4436H6.48485C6.4902 17.4436 6.49396 17.4383 6.49214 17.4333L6.20124 16.6343C6.20014 16.6311 6.19723 16.6292 6.19408 16.6292H5.96755C5.96428 16.6292 5.96148 16.6311 5.96026 16.6343Z" fill="#30363A"/>
<path d="M3.33504 16.6274H2.70113C2.69676 16.6274 2.69312 16.631 2.69312 16.6355V16.7191C2.69312 16.7236 2.69676 16.7272 2.70113 16.7272H2.89656C2.90093 16.7272 2.90445 16.7308 2.90445 16.7352V17.4355C2.90445 17.4399 2.90798 17.4435 2.91247 17.4435H3.12321C3.1277 17.4435 3.13122 17.4399 3.13122 17.4355V16.7352C3.13122 16.7308 3.13487 16.7272 3.13924 16.7272H3.33503C3.33941 16.7272 3.34293 16.7236 3.34293 16.7191V16.6355C3.34293 16.631 3.33941 16.6274 3.33504 16.6274Z" fill="#30363A"/>
<path d="M5.55726 16.6346L5.42134 17.1491C5.42 17.1538 5.41308 17.1538 5.41199 17.1491L5.27608 16.6346C5.27522 16.6314 5.27219 16.6291 5.26891 16.6291H5.05247C5.04906 16.6291 5.04615 16.6314 5.0453 16.6346L4.90939 17.1488C4.90818 17.1537 4.90137 17.1537 4.90004 17.1488L4.76424 16.6346C4.76338 16.6314 4.76036 16.6291 4.75708 16.6291H4.54525C4.54039 16.6291 4.53687 16.6336 4.53808 16.6383L4.74943 17.438C4.75015 17.4413 4.75319 17.4435 4.75647 17.4435H4.97777L5.11551 16.9223C5.11686 16.9174 5.12365 16.9174 5.12486 16.9223L5.26114 17.438C5.262 17.4413 5.26503 17.4435 5.26831 17.4435H5.48402C5.48743 17.4435 5.49034 17.4413 5.49119 17.438L5.70241 16.6383C5.70375 16.6336 5.70024 16.6291 5.69537 16.6291H5.56443C5.56102 16.6291 5.55811 16.6314 5.55726 16.6346Z" fill="#30363A"/>
<path d="M7.163 17.1821L6.80918 16.6325C6.80784 16.6303 6.80566 16.6291 6.80311 16.6291H6.59286C6.58885 16.6291 6.58569 16.6323 6.58569 16.6362V17.4364C6.58569 17.4403 6.58886 17.4434 6.59286 17.4434H6.77833C6.78221 17.4434 6.78549 17.4403 6.78549 17.4364V16.8596C6.78549 16.8548 6.79145 16.853 6.79412 16.8569L7.16956 17.4402C7.17076 17.4423 7.1732 17.4434 7.17563 17.4434H7.36426C7.36827 17.4434 7.37155 17.4403 7.37155 17.4364V16.6362C7.37155 16.6323 7.36828 16.629 7.36426 16.629H7.17891C7.1749 16.629 7.17162 16.6323 7.17162 16.6362V17.1795C7.17162 17.1842 7.16555 17.186 7.163 17.1821Z" fill="#30363A"/>
<path d="M14.6237 17.1176L14.7074 16.8874C14.71 16.8808 14.7196 16.8808 14.7221 16.8874L14.8058 17.1176C14.8065 17.1195 14.8051 17.1215 14.8031 17.1215H14.6264C14.6245 17.1215 14.623 17.1196 14.6237 17.1176ZM14.5743 16.6343L14.2834 17.4333C14.2817 17.4383 14.2853 17.4436 14.2907 17.4436H14.4997C14.5029 17.4436 14.5058 17.4415 14.5069 17.4385L14.5842 17.2262C14.5853 17.2232 14.5882 17.2211 14.5914 17.2211H14.8381C14.8413 17.2211 14.844 17.2232 14.8453 17.2262L14.9225 17.4385C14.9237 17.4415 14.9265 17.4436 14.9299 17.4436H15.0989C15.1042 17.4436 15.1079 17.4383 15.1062 17.4333L14.8153 16.6343C14.8142 16.6311 14.8112 16.6292 14.8081 16.6292H14.5814C14.5783 16.6292 14.5755 16.6311 14.5743 16.6343Z" fill="#30363A"/>
<path d="M16.524 16.6274H15.8901C15.8857 16.6274 15.8821 16.631 15.8821 16.6355V16.7191C15.8821 16.7236 15.8857 16.7272 15.8901 16.7272H16.0855C16.0899 16.7272 16.0934 16.7308 16.0934 16.7352V17.4355C16.0934 17.4399 16.0969 17.4435 16.1014 17.4435H16.3122C16.3167 17.4435 16.3202 17.4399 16.3202 17.4355V16.7352C16.3202 16.7308 16.3238 16.7272 16.3282 16.7272H16.524C16.5284 16.7272 16.5319 16.7236 16.5319 16.7191V16.6355C16.5319 16.631 16.5284 16.6274 16.524 16.6274Z" fill="#30363A"/>
<path d="M13.9586 17.0472H13.9249C13.9207 17.0472 13.9175 17.0441 13.9175 17.0399V16.7511C13.9175 16.747 13.9207 16.7437 13.9249 16.7437H13.9983C14.0792 16.7437 14.1362 16.8065 14.1362 16.8996C14.1362 17.0239 14.0254 17.0472 13.9586 17.0472ZM13.9983 16.6292H13.7148C13.7108 16.6292 13.7075 16.6324 13.7075 16.6364V17.4367C13.7075 17.4408 13.7108 17.4442 13.7148 17.4442H13.9102C13.9142 17.4442 13.9175 17.4407 13.9175 17.4367V17.1704C13.9175 17.1663 13.9207 17.163 13.9249 17.163H13.9602C14.034 17.163 14.3306 17.1608 14.3306 16.897C14.3306 16.6332 14.104 16.6292 13.9983 16.6292Z" fill="#30363A"/>
<path d="M15.4574 16.9932H15.4231C15.4193 16.9932 15.4162 16.9901 15.4162 16.9862V16.7506C15.4162 16.7468 15.4194 16.7437 15.4231 16.7437H15.4971C15.5653 16.7437 15.6183 16.7708 15.6183 16.8641C15.6183 16.9881 15.503 16.9932 15.4574 16.9932ZM15.6425 17.0908C15.6391 17.0892 15.6393 17.0845 15.6427 17.0833C15.7294 17.0551 15.8128 16.9954 15.8128 16.869C15.8128 16.629 15.6028 16.6292 15.4971 16.6292H15.2131C15.2093 16.6292 15.2063 16.6322 15.2063 16.6361V17.4372C15.2063 17.4411 15.2093 17.4442 15.2131 17.4442H15.4093C15.4132 17.4442 15.4162 17.4411 15.4162 17.4372V17.1158C15.4162 17.1121 15.4194 17.1089 15.4231 17.1089H15.4589C15.4589 17.1089 15.5028 17.1083 15.5851 17.2447L15.7033 17.4403C15.7045 17.4423 15.7068 17.4435 15.7092 17.4435H15.9035C15.909 17.4435 15.9122 17.4376 15.9093 17.433L15.7598 17.199C15.7598 17.199 15.714 17.1228 15.6425 17.0908Z" fill="#30363A"/>
<path d="M17.1661 16.6332L17.0022 16.9701C16.9997 16.9754 16.9919 16.9754 16.9892 16.9701L16.8254 16.6332C16.8243 16.6306 16.8217 16.6292 16.8189 16.6292H16.5988C16.5935 16.6292 16.59 16.6347 16.5923 16.6396L16.8449 17.1591C16.8454 17.1601 16.8456 17.1613 16.8456 17.1623V17.4363C16.8456 17.4404 16.8489 17.4436 16.8529 17.4436H17.0485C17.0525 17.4436 17.0558 17.4404 17.0558 17.4363V17.1534C17.0558 17.1523 17.056 17.1513 17.0565 17.1502L17.3063 16.6363C17.3079 16.633 17.3055 16.6292 17.3017 16.6292H17.1726C17.1697 16.6292 17.1673 16.6306 17.1661 16.6332Z" fill="#30363A"/>
<path d="M8.92629 17.094H9.1799C9.18343 17.094 9.18646 17.091 9.18646 17.0873V16.9859C9.18646 16.9822 9.18343 16.9793 9.1799 16.9793H8.92629C8.92277 16.9793 8.91973 16.9763 8.91973 16.9728V16.7489C8.91973 16.7453 8.92276 16.7422 8.92629 16.7422H9.21294C9.21671 16.7422 9.21962 16.7394 9.21962 16.7358V16.6341C9.21962 16.6305 9.21669 16.6274 9.21294 16.6274L8.71738 16.6291C8.71373 16.6291 8.71094 16.6321 8.71094 16.6357V17.437C8.71094 17.4406 8.71373 17.4435 8.71738 17.4435L9.21926 17.4441C9.2229 17.4441 9.22594 17.4411 9.22594 17.4376V17.336C9.22594 17.3325 9.22291 17.3295 9.21926 17.3295H8.92629C8.92277 17.3295 8.91973 17.3266 8.91973 17.3229V17.1005C8.91973 17.0969 8.92276 17.094 8.92629 17.094Z" fill="#30363A"/>
<path d="M11.1874 16.6292H10.9954C10.9908 16.6292 10.9871 16.6329 10.9871 16.6375V17.4352C10.9871 17.4398 10.9908 17.4435 10.9954 17.4435H11.1249V17.4442H11.49C11.4948 17.4442 11.4987 17.4404 11.4987 17.4358V17.338C11.4987 17.3334 11.4948 17.3296 11.49 17.3296H11.2045C11.1997 17.3296 11.1959 17.3257 11.1959 17.321V16.6375C11.1959 16.6329 11.1921 16.6292 11.1874 16.6292Z" fill="#30363A"/>
<path d="M9.72023 17.3296C9.58382 17.3296 9.51435 17.1815 9.51435 17.0363C9.51435 16.8912 9.58686 16.7437 9.72023 16.7437C9.8627 16.7437 9.9261 16.8912 9.9261 17.0363C9.9261 17.1815 9.86464 17.3296 9.72023 17.3296ZM9.72023 16.6155C9.47572 16.6155 9.30786 16.8041 9.30786 17.0367C9.30786 17.2692 9.4552 17.4578 9.72023 17.4578C9.96448 17.4578 10.1326 17.2692 10.1326 17.0367C10.1326 16.8041 9.98635 16.6155 9.72023 16.6155Z" fill="#30363A"/>
<path d="M8.21688 17.0472H8.18312C8.17899 17.0472 8.17583 17.0441 8.17583 17.0399V16.7511C8.17583 16.747 8.179 16.7437 8.18312 16.7437H8.2566C8.3375 16.7437 8.39446 16.8065 8.39446 16.8996C8.39446 17.0239 8.28369 17.0472 8.21688 17.0472ZM8.2566 16.6292H7.97311C7.96898 16.6292 7.96582 16.6324 7.96582 16.6364V17.4367C7.96582 17.4408 7.96899 17.4442 7.97311 17.4442H8.16854C8.17255 17.4442 8.17583 17.4407 8.17583 17.4367V17.1704C8.17583 17.1663 8.179 17.163 8.18312 17.163H8.21846C8.29231 17.163 8.58892 17.1608 8.58892 16.897C8.58892 16.6332 8.36227 16.6292 8.2566 16.6292Z" fill="#30363A"/>
<path d="M11.8263 17.094H12.0798C12.0834 17.094 12.0865 17.091 12.0865 17.0873V16.9859C12.0865 16.9822 12.0835 16.9793 12.0798 16.9793H11.8263C11.8227 16.9793 11.8196 16.9763 11.8196 16.9728V16.7489C11.8196 16.7453 11.8227 16.7422 11.8263 16.7422H12.113C12.1166 16.7422 12.1195 16.7394 12.1195 16.7358V16.6341C12.1195 16.6305 12.1166 16.6274 12.1128 16.6274L11.6173 16.6291C11.6138 16.6291 11.6108 16.6321 11.6108 16.6357V17.437C11.6108 17.4406 11.6138 17.4435 11.6174 17.4435L12.1193 17.4441C12.1228 17.4441 12.1258 17.4411 12.1258 17.4376V17.336C12.1258 17.3325 12.1228 17.3295 12.1193 17.3295H11.8263C11.8227 17.3295 11.8196 17.3266 11.8196 17.3229V17.1005C11.8196 17.0969 11.8227 17.094 11.8263 17.094Z" fill="#30363A"/>
<path d="M10.4941 17.0472H10.4603C10.4562 17.0472 10.4529 17.0441 10.4529 17.0399V16.7511C10.4529 16.747 10.4562 16.7437 10.4603 16.7437H10.5338C10.6147 16.7437 10.6716 16.8065 10.6716 16.8996C10.6716 17.0239 10.5609 17.0472 10.4941 17.0472ZM10.5338 16.6292H10.2502C10.2462 16.6292 10.2429 16.6324 10.2429 16.6364V17.4367C10.2429 17.4408 10.2462 17.4442 10.2502 17.4442H10.4456C10.4496 17.4442 10.4529 17.4407 10.4529 17.4367V17.1704C10.4529 17.1663 10.4562 17.163 10.4603 17.163H10.4956C10.5694 17.163 10.8661 17.1608 10.8661 16.897C10.8661 16.6332 10.6395 16.6292 10.5338 16.6292Z" fill="#30363A"/>
<path d="M12.2387 16.862H12.3349C12.3379 16.862 12.3407 16.8601 12.342 16.8575L12.4588 16.6178C12.4606 16.6142 12.458 16.6098 12.4538 16.6098H12.2666C12.2626 16.6098 12.2592 16.6128 12.2587 16.6167L12.2308 16.8531C12.2302 16.8578 12.2338 16.862 12.2387 16.862Z" fill="#30363A"/>
<path d="M12.8649 16.9999C12.763 16.9598 12.7093 16.9091 12.7093 16.8293C12.7093 16.7769 12.7536 16.7486 12.8462 16.7486C12.9214 16.7486 13.0069 16.7961 13.033 16.8124C13.0357 16.8142 13.0393 16.8121 13.0393 16.8088V16.6669C13.0393 16.6638 13.0376 16.6611 13.0349 16.6598C12.9766 16.6337 12.8793 16.6155 12.8148 16.6155C12.731 16.6155 12.5029 16.6178 12.5029 16.8295C12.5029 16.9484 12.5643 17.0176 12.7054 17.0854C12.8083 17.1324 12.882 17.1734 12.882 17.2375C12.882 17.3178 12.808 17.3388 12.7439 17.3388C12.6441 17.3388 12.5633 17.2835 12.5264 17.2539C12.5236 17.2517 12.5196 17.2538 12.5196 17.2572V17.407C12.5196 17.4102 12.5215 17.413 12.5245 17.4141C12.6427 17.4549 13.0884 17.533 13.0884 17.2289C13.0884 17.1075 12.9792 17.045 12.8649 16.9999Z" fill="#30363A"/>
</g>
<defs>
<clipPath id="clip0_8960_32385">
<rect width="20" height="20" fill="white"/>
</clipPath>
</defs>
</svg>
