<svg width="17" height="17" viewBox="0 0 17 17" fill="none" xmlns="http://www.w3.org/2000/svg">
<path fill-rule="evenodd" clip-rule="evenodd" d="M8.5 0C3.80558 0 0 3.80558 0 8.5C0 13.1944 3.80558 17 8.5 17C13.1944 17 17 13.1944 17 8.5C17 3.80558 13.1944 0 8.5 0ZM1.8 8.5C1.8 5.1049 4.32549 2.29935 7.60004 1.85988L7.60004 15.1401C4.32549 14.7006 1.8 11.8951 1.8 8.5ZM9.40004 7.43413V1.85989C12.6746 2.2994 15.2 5.10493 15.2 8.5C15.2 8.87188 15.1698 9.23639 15.1116 9.59129L9.40004 7.43413ZM9.40003 15.1401V9.35823L14.5817 11.3153C13.6383 13.3498 11.7041 14.8308 9.40003 15.1401Z" fill="#FF0000"/>
</svg>
